<?xml version="1.0" encoding="utf-8"?>
<!-- Generator: Adobe Illustrator 23.0.1, SVG Export Plug-In . SVG Version: 6.00 Build 0)  -->
<svg version="1.1" id="Layer_1" xmlns="http://www.w3.org/2000/svg" xmlns:xlink="http://www.w3.org/1999/xlink" x="0px" y="0px"
	 viewBox="0 0 679 385.54" style="enable-background:new 0 0 679 385.54;" xml:space="preserve">
<style type="text/css">
	.st0{fill:#47AAC5;}
	.st1{fill:#133153;}
	.st2{fill:#2D6DA7;}
	.st3{fill:#233F71;}
	.st4{fill:#91D4DB;}
	.st5{fill:#4CC2D1;}
	.st6{fill:#C6E9F3;}
	.st7{fill:#83D4E1;}
	.st8{fill:#C2E9ED;}
	.st9{fill:#3997BB;}
	.st10{fill:#0F2849;}
</style>
<g>
	<g>
		<polygon class="st0" points="89.5,282.02 85.91,306.98 93.72,314.02 110.45,316.65 110.45,297.84 		"/>
		<polygon class="st1" points="74.61,254.16 52.24,303.98 63.95,344.3 80.5,265.26 		"/>
		<polygon class="st2" points="68.13,210.91 68.21,232.48 74.61,254.16 97.48,234.91 101.27,226.67 		"/>
		<polygon class="st3" points="27.18,194.52 37.03,170.86 68.13,210.91 		"/>
		<polygon class="st2" points="37.03,170.86 27.18,194.52 16.79,156.23 		"/>
		<polygon class="st4" points="68.13,210.91 80.25,190.8 104.91,217.67 101.27,226.67 		"/>
		<polygon class="st2" points="110.45,328.3 110.45,316.65 93.72,314.02 97.58,325.97 		"/>
		<polygon class="st1" points="94.57,294.67 97.22,305.56 110.45,310.68 110.45,303.57 102.5,301.1 98.22,294.67 		"/>
		<polygon class="st5" points="68.13,210.91 80.25,190.8 37.03,170.86 		"/>
		<polygon class="st6" points="16.79,156.23 37.03,170.86 80.25,190.8 52.71,165.87 		"/>
		<polygon class="st7" points="80.25,190.8 63.95,96.23 79.2,96.23 102.84,182.68 		"/>
		<polygon class="st8" points="63.95,96.23 73.37,13.43 79.2,96.23 		"/>
		<polygon class="st6" points="102.84,182.68 110.45,182.68 110.45,209.96 110.45,278.7 95.06,254.64 97.48,234.91 104.13,219.47 
			80.25,190.8 		"/>
		<polygon class="st9" points="95.06,254.64 89.5,282.02 74.61,254.16 97.48,234.91 		"/>
		<polygon class="st10" points="74.61,220.82 85.92,226.9 88.38,232.48 74.69,230.09 		"/>
		<polygon class="st0" points="89.5,282.02 110.45,278.7 95.06,254.64 		"/>
		<polygon class="st9" points="89.5,282.02 110.45,297.84 110.45,278.7 		"/>
		<polygon class="st1" points="63.95,344.3 85.91,352.45 97.58,325.97 93.72,314.02 85.91,306.98 		"/>
		<polygon class="st3" points="85.91,352.45 105,372.11 97.58,325.97 85.91,352.45 		"/>
		<polygon class="st1" points="110.45,328.3 110.45,372.11 105,372.11 97.58,325.97 		"/>
		<polygon class="st3" points="80.5,265.26 89.5,282.02 85.91,306.98 63.95,344.3 		"/>
	</g>
	<g>
		<polygon class="st0" points="131.41,282.02 134.99,306.98 127.19,314.02 110.45,316.65 110.45,297.84 		"/>
		<polygon class="st1" points="146.3,254.16 168.67,303.98 156.96,344.3 140.41,265.26 		"/>
		<polygon class="st2" points="152.77,210.91 152.7,232.48 146.3,254.16 123.42,234.91 119.64,226.67 		"/>
		<polygon class="st3" points="193.73,194.52 183.88,170.86 152.77,210.91 		"/>
		<polygon class="st2" points="183.88,170.86 193.73,194.52 204.12,156.23 		"/>
		<polygon class="st4" points="152.77,210.91 140.66,190.8 116,217.67 119.64,226.67 		"/>
		<polygon class="st2" points="110.45,328.3 110.45,316.65 127.19,314.02 123.33,325.97 		"/>
		<polygon class="st1" points="126.33,294.67 123.68,305.56 110.45,310.68 110.45,303.57 118.41,301.1 122.69,294.67 		"/>
		<polygon class="st5" points="152.77,210.91 140.66,190.8 183.88,170.86 		"/>
		<polygon class="st6" points="204.12,156.23 183.88,170.86 140.66,190.8 168.2,165.87 		"/>
		<polygon class="st7" points="140.66,190.8 156.96,96.23 141.7,96.23 118.07,182.68 		"/>
		<polygon class="st8" points="156.96,96.23 147.54,13.43 141.7,96.23 		"/>
		<polygon class="st6" points="118.07,182.68 110.45,182.68 110.45,209.96 110.45,278.7 125.84,254.64 123.42,234.91 116.78,219.47 
			140.66,190.8 		"/>
		<polygon class="st9" points="125.84,254.64 131.41,282.02 146.3,254.16 123.42,234.91 		"/>
		<polygon class="st10" points="146.3,220.82 134.99,226.9 132.52,232.48 146.22,230.09 		"/>
		<polygon class="st0" points="131.41,282.02 110.45,278.7 125.84,254.64 		"/>
		<polygon class="st9" points="131.41,282.02 110.45,297.84 110.45,278.7 		"/>
		<polygon class="st1" points="156.96,344.3 134.99,352.45 123.33,325.97 127.19,314.02 134.99,306.98 		"/>
		<polygon class="st3" points="134.99,352.45 115.9,372.11 123.33,325.97 134.99,352.45 		"/>
		<polygon class="st1" points="110.45,328.3 110.45,372.11 115.9,372.11 123.33,325.97 		"/>
		<polygon class="st3" points="140.41,265.26 131.41,282.02 134.99,306.98 156.96,344.3 		"/>
	</g>
	<g>
		<path class="st1" d="M268.18,252.54c-5.07,4.95-11.32,7.43-18.73,7.43c-7.42,0-13.66-2.48-18.73-7.43
			c-5.07-4.95-7.61-11.11-7.61-18.48c0-7.37,2.54-13.53,7.61-18.48c5.07-4.95,11.31-7.43,18.73-7.43c7.41,0,13.66,2.48,18.73,7.43
			c5.07,4.95,7.61,11.11,7.61,18.48C275.78,241.43,273.25,247.59,268.18,252.54z M264.37,234.09c0-4.47-1.43-8.29-4.31-11.45
			c-2.87-3.16-6.4-4.74-10.58-4.74c-4.19,0-7.71,1.58-10.58,4.74c-2.87,3.16-4.31,6.97-4.31,11.45c0,4.47,1.44,8.28,4.31,11.41
			c2.87,3.13,6.4,4.7,10.58,4.7c4.19,0,7.71-1.57,10.58-4.7C262.94,242.37,264.37,238.57,264.37,234.09z"/>
		<path class="st1" d="M325.95,225.95c0,8.04-3.18,13.23-9.55,15.57l12.7,17.94h-13.78l-11.12-16h-7.75v16h-11.19V209.3h19.02
			c7.8,0,13.36,1.32,16.68,3.95C324.28,215.88,325.95,220.11,325.95,225.95z M312.45,231.91c1.39-1.24,2.08-3.22,2.08-5.92
			c0-2.7-0.72-4.56-2.15-5.56c-1.44-1-3.95-1.51-7.54-1.51h-8.4v14.85h8.18C308.46,233.77,311.06,233.15,312.45,231.91z"/>
		<path class="st1" d="M357.73,259.46h-11.19v-19.81l-17.37-30.35h12.13l10.84,18.66l10.84-18.66h12.13l-17.37,30.35V259.46z"/>
		<path class="st1" d="M408.69,209.3h13.49l-15.64,24.18l16.94,25.98h-13.63l-10.69-16.51l-10.62,16.51h-13.49l16.86-25.69
			l-15.72-24.47h13.42l9.54,14.85L408.69,209.3z"/>
	</g>
	<g>
		<path class="st1" d="M249.02,311.31c5.5,0,10-2.18,13.49-6.53l7.18,7.39c-5.69,6.41-12.4,9.62-20.13,9.62
			c-7.73,0-14.09-2.44-19.09-7.32c-5-4.88-7.5-11.04-7.5-18.48c0-7.44,2.55-13.65,7.64-18.62c5.1-4.97,11.33-7.46,18.69-7.46
			c8.23,0,15.12,3.13,20.67,9.4l-6.96,7.89c-3.54-4.4-7.94-6.6-13.2-6.6c-4.21,0-7.81,1.38-10.8,4.13
			c-2.99,2.75-4.48,6.46-4.48,11.12c0,4.66,1.41,8.41,4.23,11.23S245,311.31,249.02,311.31z"/>
		<path class="st1" d="M319.63,314.28c-5.07,4.95-11.32,7.43-18.73,7.43c-7.42,0-13.66-2.48-18.73-7.43
			c-5.07-4.95-7.61-11.11-7.61-18.48s2.54-13.53,7.61-18.48c5.07-4.95,11.31-7.43,18.73-7.43c7.41,0,13.66,2.48,18.73,7.43
			c5.07,4.95,7.61,11.11,7.61,18.48S324.7,309.33,319.63,314.28z M315.83,295.84c0-4.47-1.44-8.29-4.31-11.45
			c-2.87-3.16-6.4-4.74-10.58-4.74c-4.19,0-7.71,1.58-10.58,4.74c-2.87,3.16-4.31,6.97-4.31,11.45c0,4.47,1.43,8.28,4.31,11.41
			c2.87,3.13,6.4,4.7,10.58,4.7c4.19,0,7.71-1.57,10.58-4.7C314.39,304.12,315.83,300.32,315.83,295.84z"/>
		<path class="st1" d="M381.63,289.64l-13.56,27.41h-6.67l-13.49-27.41v31.57h-11.2v-50.16h15.14l12.92,27.56l12.99-27.56h15.07
			v50.16h-11.2V289.64z"/>
		<path class="st1" d="M450.09,289.64l-13.56,27.41h-6.67l-13.49-27.41v31.57h-11.2v-50.16h15.14l12.92,27.56l12.99-27.56h15.07
			v50.16h-11.2V289.64z"/>
		<path class="st1" d="M509.8,271.05v9.98h-24.97v10.33h22.46v9.54h-22.46v10.41h25.76v9.9h-36.96v-50.16H509.8z"/>
		<path class="st1" d="M561.25,287.7c0,8.04-3.18,13.23-9.55,15.57l12.7,17.94h-13.78l-11.12-16h-7.75v16h-11.2v-50.16h19.02
			c7.8,0,13.36,1.32,16.68,3.95C559.58,277.63,561.25,281.86,561.25,287.7z M547.76,293.65c1.39-1.24,2.08-3.22,2.08-5.92
			c0-2.7-0.72-4.56-2.15-5.56c-1.43-1-3.95-1.51-7.53-1.51h-8.4v14.85h8.18C543.76,295.52,546.37,294.9,547.76,293.65z"/>
		<path class="st1" d="M595.76,311.31c5.5,0,10-2.18,13.49-6.53l7.18,7.39c-5.69,6.41-12.4,9.62-20.13,9.62
			c-7.73,0-14.09-2.44-19.09-7.32c-5-4.88-7.5-11.04-7.5-18.48c0-7.44,2.55-13.65,7.64-18.62c5.1-4.97,11.33-7.46,18.69-7.46
			c8.23,0,15.12,3.13,20.67,9.4l-6.96,7.89c-3.54-4.4-7.94-6.6-13.2-6.6c-4.21,0-7.81,1.38-10.8,4.13
			c-2.99,2.75-4.48,6.46-4.48,11.12c0,4.66,1.41,8.41,4.23,11.23C588.32,309.9,591.74,311.31,595.76,311.31z"/>
		<path class="st1" d="M661.42,271.05v9.98h-24.97v10.33h22.46v9.54h-22.46v10.41h25.76v9.9h-36.96v-50.16H661.42z"/>
	</g>
</g>
</svg>
